<svg version="1.1" xmlns="http://www.w3.org/2000/svg" viewBox="0 -450 500 350" width="15" height="30"><g transform="scale(-1, 1) rotate(180)">
<path d="M115 171c0 -71 59 -122 137 -122c74 0 125 46 125 112c0 82 -81 112 -173 149c-51 -34 -89 -81 -89 -139zM295 348c43 38 67 81 67 128c0 63 -41 113 -111 113c-59 0 -103 -41 -103 -103c0 -76 70 -108 147 -138zM41 163c0 83 60 140 120 172v4c-47 33 -89 80 -89 147
c0 98 78 164 181 164c111 0 180 -71 180 -170c0 -67 -49 -124 -88 -154v-4c57 -33 111 -78 111 -164c0 -95 -82 -170 -206 -170c-120 0 -209 74 -209 175z" />
</g></svg>
